<?xml version="1.0" encoding="UTF-8"?>
<svg id="Layer_1" xmlns="http://www.w3.org/2000/svg" version="1.1" viewBox="0 0 16 16">
  <!-- Generator: Adobe Illustrator 30.0.0, SVG Export Plug-In . SVG Version: 2.1.1 Build 123)  -->
  <defs>
    <style>
      .st0 {
        fill: #fff;
      }
    </style>
  </defs>
  <g>
    <g>
      <path class="st0" d="M11.9,8s-1.2-2.5-3.8-2.5"/>
      <path d="M11.9,8.5c-.2,0-.4-.1-.5-.3,0,0-1.1-2.2-3.4-2.2s-.5-.2-.5-.5.2-.5.5-.5c2.9,0,4.2,2.6,4.3,2.8.1.2,0,.5-.2.7,0,0-.1,0-.2,0Z"/>
    </g>
    <g>
      <path class="st0" d="M4.3,8s1.2-2.5,3.8-2.5"/>
      <path d="M4.3,8.5c0,0-.1,0-.2,0-.2-.1-.4-.4-.2-.7,0-.1,1.4-2.8,4.3-2.8s.5.2.5.5-.2.5-.5.5c-2.3,0-3.3,2.2-3.4,2.2,0,.2-.3.3-.4.3Z"/>
    </g>
  </g>
  <circle cx="8" cy="8" r="1.9"/>
</svg>