<?xml version="1.0" encoding="UTF-8"?>
<svg id="Layer_1" data-name="Layer 1" xmlns="http://www.w3.org/2000/svg" viewBox="0 0 118.46 38.6">
  <defs>
    <style>
      .cls-1 {
        fill: none;
      }

      .cls-2 {
        fill: #2316c4;
      }
    </style>
  </defs>
  <polygon class="cls-1" points="20.63 24.26 32.8 31.31 33.71 20.74 33.8 19.74 33.72 19.69 28.37 16.59 27.41 16.03 24.71 14.47 21.63 12.68 20.63 24.26"/>
  <polygon class="cls-1" points="3.37 17.84 1.72 6.47 1 14.79 2.65 26.15 2.81 24.33 3.37 17.84"/>
  <polygon class="cls-1" points="95.19 31.44 98.46 23.42 97.53 23.12 91.49 21.18 88.22 29.2 95.19 31.44"/>
  <path class="cls-1" d="M80.89,20.54l6.51,8,3.22-7.89-7.39-9.09-2.53-3.11,1.39,8.95s0,.02,0,.03c0,.06,0,.12-.02.18,0,.02,0,.03,0,.05,0,0,0,0,0,0l-1.17,2.87Z"/>
  <path class="cls-1" d="M34.78,19.99l-.04.42-.7,8.11-.27,3.15,12.28.66.44-5.06c-5.2-2.48-8.4-4.86-9.65-7.17l-.96-.05-1.1-.06Z"/>
  <path class="cls-1" d="M66.7,13.76l-.06-.39-.14.3c.07.03.13.06.2.09Z"/>
  <path class="cls-1" d="M14.86,14.42l.57,3.93s0,.03,0,.05c0,.02,0,.04,0,.06l-.63,7.24,4.83-1.55.31-3.64.69-7.96-5.78,1.85Z"/>
  <path class="cls-1" d="M37.9,11.46c.04-.31.12-.6.24-.86l1.88-4.2-10.3,3.28,7.96,4.42.41-.91c-.2-.56-.28-1.13-.19-1.73Z"/>
  <path class="cls-1" d="M28.23,9.99c-.17-.1-.27-.29-.25-.48,0,0,0,0,0,0,0-.06.04-.11.07-.17.02-.03.02-.07.04-.1.06-.08.14-.13.24-.16l12.25-3.9.2-.44-10.39-.56-16.63,5.52c-.14.05-.29.03-.42-.05s-.21-.21-.23-.35l-.89-6.1-10.04-.54,2.13,14.69,9.16.49.88.05-.54-3.75s0-.09,0-.13c.01-.09.04-.16.09-.23,0-.01.02-.02.03-.03.06-.06.13-.12.21-.15l6.9-2.21s.07,0,.11-.01c.03,0,.05,0,.08,0,.01,0,.03,0,.04,0,.03,0,.05.02.07.02.04.01.07.02.11.03l6.06,3.51.96.55,6.01,3.48,1.28.07.65.04c-.17-.58-.23-1.16-.15-1.73,0-.05.02-.09.04-.14l.98-2.19-8.37-4.65-.67-.37Z"/>
  <path class="cls-1" d="M66.03,12.24s0-.04-.01-.06c0-.02-.01-.05-.02-.07,0-.02-.02-.05-.03-.07-.01-.03-.03-.06-.05-.09-.02-.03-.03-.05-.05-.08-.02-.03-.05-.07-.08-.1-.02-.03-.05-.06-.08-.09-.03-.04-.07-.08-.1-.12-.03-.03-.06-.07-.1-.1-.04-.04-.09-.08-.13-.13-.04-.04-.08-.07-.12-.11-.05-.05-.11-.09-.17-.14-.05-.04-.09-.08-.15-.12-.06-.05-.14-.1-.21-.15-.06-.04-.11-.08-.17-.12-.08-.05-.16-.11-.25-.17-.06-.04-.12-.08-.19-.13-.09-.06-.19-.12-.29-.18-.07-.04-.14-.09-.21-.13-.11-.06-.22-.13-.34-.19-.08-.04-.15-.09-.24-.13-.12-.07-.26-.14-.39-.21-.08-.04-.16-.09-.25-.13-.15-.07-.31-.15-.47-.23-.09-.04-.17-.08-.26-.12-.17-.08-.36-.16-.55-.25-.09-.04-.16-.07-.25-.11-.21-.09-.43-.18-.65-.27-.08-.03-.16-.07-.24-.1-.31-.12-.63-.25-.97-.38-.39-.15-.76-.28-1.11-.41-.08-.03-.15-.05-.23-.08-.29-.1-.57-.2-.83-.29-.04-.01-.08-.03-.12-.04-2.23-.74-3.45-.97-4.11-1.01-.4-.02-.62.04-.73.1-.17.92,4.45,2.95,7.83,4.43.66.29,1.33.58,2.01.88.75.34,1.51.67,2.25,1,.54.24,1.08.48,1.61.71l.44-.98s0-.03,0-.04Z"/>
  <polygon class="cls-1" points="13.38 30.57 13.68 27.12 13.77 26.04 14.39 18.89 14.39 18.89 13.39 18.84 4.33 18.35 3.6 26.88 3.32 30.02 13.38 30.57"/>
  <polygon class="cls-1" points="103.92 24.43 105.3 33.28 108.22 26.13 106.84 17.27 105.82 19.79 103.92 24.43"/>
  <polygon class="cls-1" points="114.03 37.48 117.3 29.46 116.23 29.12 109.02 26.81 105.75 34.83 114.03 37.48"/>
  <polygon class="cls-1" points="102.99 24.08 104.83 19.55 105.7 17.44 99.56 23.39 97.31 28.9 96.84 30.04 102.99 24.08"/>
  <path class="cls-2" d="M44.86,4.05s-.02,0-.03-.01c.01,0,.03.02.04.03,0,0,0,0,0-.01Z"/>
  <polygon class="cls-2" points="40.58 5.18 40.58 5.18 28.32 9.08 40.58 5.18"/>
  <path class="cls-2" d="M19.61,24.49l.03-.33-4.83,1.55-.09,1.08,5.34-1.71-.19-.11c-.17-.1-.26-.28-.25-.48Z"/>
  <polygon class="cls-2" points="20.63 24.26 20.63 24.26 21.63 12.68 20.63 24.26"/>
  <polygon class="cls-2" points="19.95 20.52 20.64 12.56 20.64 12.56 19.95 20.52"/>
  <polygon class="cls-2" points="47.98 19.85 47.98 19.85 47.99 19.86 47.98 19.85"/>
  <polygon class="cls-2" points="32.8 31.31 32.8 31.31 33.8 19.74 33.71 20.74 32.8 31.31"/>
  <path class="cls-2" d="M46.05,32.32l-12.28-.66-.04.51c-.01.17-.12.32-.27.4-.07.04-.15.06-.23.06s-.16-.02-.24-.06c.06.04.13.06.21.06l13.28.71s.02,0,.03,0c.26,0,.48-.2.5-.46l.45-5.17c-.33-.15-.65-.3-.96-.46l-.44,5.06Z"/>
  <polygon class="cls-2" points="34.04 28.52 34.74 20.41 34.78 19.99 35.88 20.05 36.84 20.1 36.84 20.1 34.78 19.99 34.04 28.52"/>
  <polygon class="cls-2" points="34.47 18.97 34.47 18.97 36.41 19.07 36.41 19.07 35.75 19.04 34.47 18.97"/>
  <path class="cls-2" d="M33.46,32.58c.15-.08.25-.23.27-.4l.04-.51.27-3.15.74-8.53-.48-.03c-.08,0-.16-.03-.22-.07l-9.37-5.43,2.7,1.57.96.55,5.35,3.1.08.05-1,11.57h0l-12.17-7.05h0l1-11.57-.49-.28-.5.16-.69,7.96-.31,3.64-.03.33c-.02.19.08.38.25.48l.19.11,12.93,7.49s0,0,.01,0c.07.04.15.06.24.06s.16-.02.23-.06Z"/>
  <path class="cls-2" d="M1.23,1.79s-.01.03-.02.04c.01-.02.02-.04.04-.05,0,0,0,0-.01,0Z"/>
  <path class="cls-2" d="M34.47,18.97l-6.01-3.48-.96-.55-6.06-3.51s-.07-.02-.11-.03c-.02,0-.05-.02-.07-.02-.01,0-.03,0-.04,0-.03,0-.05,0-.08,0-.04,0-.07,0-.11.01l-6.9,2.21c-.09.03-.16.08-.21.15-.01.01-.02.02-.03.03-.05.07-.08.15-.09.23,0,.04-.01.09,0,.13l.54,3.75.61.03c.14,0,.26.07.35.17.07.09.11.2.11.31,0-.02,0-.03,0-.05l-.57-3.93,5.78-1.85h0s.5-.16.5-.16l.49.28,3.08,1.78,9.37,5.43c.07.04.15.06.22.07l.48.03,2.06.11c-.19-.34-.33-.68-.43-1.02l-1.93-.1h0Z"/>
  <path class="cls-2" d="M2.09,2.06l2.22,15.29h0L2.18,2.66l10.04.54.89,6.1c.02.15.11.28.23.35s.28.1.42.05l16.63-5.52,10.39.56.44-.98-10.87-.58c-.06,0-.12,0-.18.02l-16.16,5.36-.86-5.91c-.03-.24-.23-.41-.47-.43L1.62,1.63s-.01,0-.02,0c.25.02.45.18.49.42Z"/>
  <path class="cls-2" d="M40.03,6.4l.55-1.22-12.25,3.9c-.1.03-.18.09-.24.16-.02.03-.02.07-.04.1-.03.05-.06.1-.07.17,0,0,0,0,0,0-.02.2.08.39.25.48l.67.37,8.37,4.65.41-.92-7.96-4.42,10.3-3.28Z"/>
  <polygon class="cls-2" points="14.39 18.89 14.39 18.89 14.39 18.89 4.33 18.35 4.33 18.35 13.39 18.84 14.39 18.89"/>
  <path class="cls-2" d="M2.4,30.82s.02.01.03.02c-.02-.02-.03-.04-.05-.06,0,.01.01.03.02.04Z"/>
  <path class="cls-2" d="M15.43,18.46s0-.04,0-.06c0-.11-.04-.22-.11-.31-.09-.1-.22-.16-.35-.17l-.61-.03-.88-.05-9.16-.49h0l.06.41s0,.08,0,.11l-.78,9.01.74-8.53h0s10.06.54,10.06.54h0s-.62,7.15-.62,7.15l-.09,1.08-.3,3.45-10.06-.54-.04.51c-.02.25-.23.45-.48.46h-.01s-.05-.01-.08-.01c.02,0,.03.01.05.01l11.06.59s.02,0,.03,0c.26,0,.48-.2.5-.46l.38-4.35.09-1.08.63-7.24Z"/>
  <polygon class="cls-2" points="3.37 17.84 3.37 17.84 2.81 24.33 3.37 17.84"/>
  <path class="cls-2" d="M2.8,31c.25,0,.46-.2.48-.46l.04-.51.27-3.15.78-9.01s0-.08,0-.11l-.06-.41L2.09,2.06c-.04-.24-.23-.4-.49-.42,0,0-.01,0-.02,0-.13,0-.25.06-.34.15-.01.01-.02.03-.04.05-.03.04-.05.08-.07.12,0,.02-.01.05-.02.07,0,.02-.02.04-.02.06L0,14.76s0,.08,0,.11l2.28,15.7s.01.03.01.04c0,.03.02.05.03.08.01.04.03.07.05.1.01.02.03.04.05.06.03.03.06.05.09.07.02.01.04.03.06.04.04.02.08.02.12.03.03,0,.05.01.08.01h.01ZM2.65,26.15l-1.65-11.37.72-8.31,1.65,11.37h0s-.56,6.5-.56,6.5l-.16,1.82Z"/>
  <path class="cls-2" d="M52.63,6.13c.66.04,1.87.26,4.11,1.01-2.19-.73-3.42-.97-4.11-1.01Z"/>
  <path class="cls-2" d="M51.75,5.22c.14-.04.31-.07.51-.08-.2.01-.36.04-.51.08Z"/>
  <path class="cls-2" d="M51.72,5.23c-.34.1-.56.26-.7.48.09-.13.21-.25.36-.34.09-.06.21-.11.34-.15Z"/>
  <path class="cls-2" d="M66.03,12.32s0-.03,0-.04l-.44.98c.31.14.61.27.91.41l.14-.3-.07-.42-.22-.08c-.22-.08-.35-.31-.32-.54Z"/>
  <path class="cls-2" d="M40.58,5.18h0s-.55,1.22-.55,1.22l-1.88,4.2c-.12.26-.2.55-.24.86-.08.6,0,1.17.19,1.73l.93-2.06s.02-.08.03-.12l2.25-5.01.53-1.17c.02.06.06.13.08.19-.25-.62-.35-1.25-.26-1.92.05-.35.16-.65.3-.94-.02.03-.04.05-.06.08,0,0,0,0,0,0l-.68,1.52-.44.98-.2.44Z"/>
  <path class="cls-2" d="M49.99,11.29c-.26-.13-.51-.26-.76-.39.14.08.29.15.43.23.11.05.22.11.32.16Z"/>
  <path class="cls-2" d="M48.85,10.7c-.3-.16-.58-.31-.86-.47.26.14.52.29.79.43.02.01.05.03.07.04Z"/>
  <path class="cls-2" d="M40.98,9.75s0,0,0,.01c0,0,0,0,0-.01h0Z"/>
  <path class="cls-2" d="M64.17,23.21c.25.08.5.15.75.23-.02,0-.04-.01-.06-.02-.23-.07-.45-.13-.69-.21Z"/>
  <path class="cls-2" d="M40.27,8.61c.12-.06.26-.08.39-.03,0,0-.01,0-.02,0-.13-.04-.26-.02-.37.04Z"/>
  <path class="cls-2" d="M72.73,31.89c-1.15,2.55-7.33,1.74-18.4-2.41-2.55-.96-4.81-1.9-6.79-2.82-.32-.15-.66-.3-.96-.45-4.41-2.13-7.27-4.15-8.56-6.05,0,0,0,0,0,0-.24-.35-.41-.69-.54-1.03,0,0,0,0,0,0-.21-.54-.3-1.07-.24-1.59l.92-2.04.41-.92.12-.26.49-1.1,1.04-2.31c.03.07.07.15.1.23-.29-.73-.4-1.45-.3-2.17,0-.06.04-.12.07-.18,0,.01-.02.02-.03.04l-1.03,2.29-.93,2.06-.41.91-.41.92-.98,2.19s-.03.09-.04.14c-.08.57-.02,1.15.15,1.73,0,0,0,0,0,0,.1.34.25.68.43,1.02h0c1.25,2.31,4.45,4.68,9.65,7.17.32.15.63.3.96.46,1.93.88,4.1,1.78,6.53,2.69,6.95,2.61,11.97,3.91,15.24,3.91,2.36,0,3.81-.68,4.42-2.02l2.64-5.88-.96-.31-2.59,5.78Z"/>
  <path class="cls-2" d="M65.74,23.68c.19.05.37.1.55.15-.16-.04-.31-.08-.47-.13-.03,0-.06-.01-.08-.02Z"/>
  <path class="cls-2" d="M41.91,5.01c.03.08.06.16.1.23.06.13.14.27.22.4,0,.02.02.03.03.05.03.05.06.11.1.16.11.16.23.33.36.49.03.03.05.07.08.1.17.2.35.39.54.58.06.06.12.11.18.17.08.08.17.15.26.23.07.06.13.12.2.18.08.07.17.14.26.21.15.12.31.25.48.37,0,0,0,0,0,0,.1.07.2.14.3.22.17.12.36.25.54.37.1.07.2.13.3.2.22.14.44.28.67.42.08.05.16.1.25.15.32.19.65.38.99.57.07.04.14.08.21.11.28.16.57.31.86.47.13.07.25.13.38.2.25.13.5.26.76.39.15.07.3.15.45.22.25.13.51.26.78.38.15.07.3.15.45.22.29.14.59.28.88.43.13.06.26.12.39.19.43.2.86.41,1.31.62,1.89.89,3.55,1.65,5.01,2.31.26.12.51.23.76.35,1.35.62,2.57,1.18,3.59,1.69.32.16.62.31.89.46,1.29.69,2.05,1.24,1.98,1.61-.16.09-.72.24-2.61-.22-.29-.07-.62-.16-.98-.26-.13-.04-.27-.08-.4-.12-.89-.27-1.97-.63-3.29-1.13-.08-.03-.15-.06-.23-.09-1.7-.65-3.09-1.25-4.22-1.81-1.66-.83-2.74-1.56-3.36-2.16-.5-.49-.69-.89-.65-1.2.03-.23-.1-.45-.32-.54l-1.07-.4-.94-.35-3.85-1.45-.97-.37-2.91-1.09s-.01,0-.02,0c-.13-.04-.27-.03-.39.03,0,0-.01,0-.02,0-.01,0-.02.02-.03.03-.04.03-.07.06-.1.1-.02.02-.03.04-.04.06-.03.05-.06.11-.07.18-.1.72,0,1.44.3,2.17.04.09.08.19.12.28.07.16.16.32.26.48.05.09.09.17.15.26.13.2.28.41.44.61.03.04.06.08.09.13.2.25.42.49.67.74.07.07.16.15.24.22.18.17.37.35.57.53.1.09.21.18.32.27,0,0,.01,0,.02.01.19.16.4.32.61.48.1.08.21.16.32.23.03.02.05.04.08.06.23.16.46.33.71.49.14.09.27.18.42.28.29.19.6.38.91.56.11.07.22.14.34.2.44.26.9.51,1.38.77.1.05.21.11.31.16.39.21.79.41,1.21.62.18.09.38.18.56.27.36.17.73.35,1.11.52.22.1.44.2.66.3.38.17.77.34,1.17.51.23.1.45.2.69.29.44.18.89.37,1.36.56.21.08.41.17.63.25.68.27,1.38.54,2.11.81.76.28,1.48.55,2.19.8.23.08.45.16.67.24.52.18,1.03.35,1.52.52.44.15.86.28,1.28.41.26.08.52.16.77.24.09.03.19.06.28.09.31.09.61.18.9.26.01,0,.02,0,.03,0,.01,0,.02,0,.03,0,3.15.9,5.66,1.35,7.56,1.35.56,0,1.05-.06,1.5-.14l-2.98-.96s0,0,0,0c-.26-.03-.54-.06-.82-.1-.05,0-.11-.02-.16-.03-1.22-.19-2.63-.5-4.2-.93-.18-.05-.37-.1-.55-.15-.27-.08-.55-.16-.82-.24-.25-.07-.49-.15-.75-.23-.26-.08-.52-.16-.79-.25-.3-.1-.61-.2-.92-.3-.24-.08-.48-.16-.73-.24-.38-.13-.77-.26-1.16-.4-.2-.07-.4-.14-.61-.21-.61-.22-1.23-.45-1.88-.69-.72-.27-1.41-.54-2.08-.8-.23-.09-.44-.18-.66-.27-.43-.18-.87-.35-1.29-.53-.25-.11-.49-.21-.74-.32-.36-.16-.73-.31-1.07-.47-.25-.11-.49-.22-.74-.34-.32-.15-.64-.29-.94-.44-.24-.12-.47-.23-.7-.34-.29-.14-.57-.28-.85-.42-.22-.11-.44-.23-.65-.34-.26-.14-.52-.28-.76-.42-.2-.11-.4-.23-.59-.34-.23-.14-.46-.27-.68-.41-.18-.11-.36-.23-.54-.34-.21-.13-.41-.27-.6-.4-.16-.11-.32-.22-.48-.34-.18-.13-.34-.25-.51-.38,0,0-.01,0-.02-.01-.14-.11-.28-.22-.42-.33-.16-.13-.31-.26-.45-.39-.02-.01-.03-.03-.05-.04-.1-.09-.21-.19-.31-.28-.14-.13-.26-.26-.38-.39-.1-.1-.2-.21-.29-.31-.11-.13-.21-.26-.31-.39-.08-.1-.16-.2-.22-.3-.09-.13-.16-.27-.24-.4-.05-.09-.11-.19-.16-.28-.07-.14-.12-.28-.17-.42-.03-.08-.07-.17-.09-.25-.05-.16-.07-.32-.09-.49,0-.06-.03-.12-.03-.17,0,0,0,0,0-.01h0s2.52.95,2.52.95l.97.36,3.53,1.33.94.35.81.3c.02.19.09.39.18.58.19.41.53.83,1,1.26,1.4,1.26,4.04,2.63,7.91,4.08,1.22.46,2.24.81,3.12,1.08.55.17,1.04.31,1.48.42,1.2.31,2,.41,2.55.39.48-.01.78-.12.98-.24.29-.17.47-.44.52-.77.12-.88-.65-1.59-2.6-2.62-.27-.15-.57-.3-.89-.46-1.14-.56-2.57-1.22-4.35-2.03-1.45-.66-3.11-1.42-5-2.31-1.71-.8-3.23-1.54-4.58-2.24-.3-.16-.6-.31-.89-.46-1.84-.98-3.3-1.88-4.37-2.74-.35-.28-.66-.56-.93-.84-.26-.26-.48-.53-.66-.79-.35-.51-.55-1.03-.6-1.55-.02-.2-.02-.4,0-.6.03-.19.08-.37.15-.53.15-.38.41-.68.79-.9,1.48-.88,5.45-1.1,15.99,2.86,2.85,1.07,5.2,2.08,7.14,3.03l.38-.93c-2.06-1-4.44-2.01-7.17-3.04C51.04.39,45.53-.52,43.07.95c-.51.3-.87.71-1.11,1.21-.14.29-.25.59-.3.94-.09.66,0,1.3.26,1.92Z"/>
  <path class="cls-2" d="M65.91,10.47c-.09-.08-.17-.15-.27-.23-.06-.05-.12-.1-.19-.14-.08-.06-.16-.13-.25-.19-.07-.05-.15-.1-.22-.15-.09-.06-.18-.12-.27-.18-.08-.05-.17-.11-.25-.16-.1-.06-.2-.12-.3-.18-.09-.05-.18-.11-.28-.16-.11-.06-.21-.12-.32-.18-.1-.05-.2-.11-.3-.16-.12-.06-.23-.12-.35-.18-.11-.05-.21-.11-.33-.16-.13-.06-.26-.12-.39-.18-.11-.05-.23-.11-.34-.16-.14-.06-.29-.13-.43-.19-.11-.05-.22-.1-.34-.15-.17-.07-.34-.14-.52-.21-.1-.04-.2-.08-.31-.13-.28-.11-.57-.23-.87-.34-.38-.14-.74-.27-1.08-.4-.14-.05-.26-.09-.39-.14-.2-.07-.4-.14-.58-.2-.15-.05-.3-.1-.45-.15-.15-.05-.3-.1-.44-.14-.15-.05-.29-.09-.43-.13-.13-.04-.25-.08-.38-.11-.13-.04-.26-.07-.38-.11-.12-.03-.24-.07-.35-.1-.11-.03-.21-.06-.31-.08-.13-.03-.26-.06-.38-.09-.07-.02-.14-.03-.21-.05-.39-.08-.72-.13-1.01-.16-.04,0-.07,0-.11,0-.1,0-.2-.01-.29-.02-.05,0-.1,0-.14,0-.06,0-.12,0-.18,0-.2.01-.37.04-.51.08,0,0-.01,0-.02,0-.13.04-.25.09-.34.15-.15.09-.27.2-.36.34,0,0,0,0,0,0-.09.13-.15.29-.17.46-.06.41.11.81.5,1.22,1.04,1.1,3.69,2.31,7.97,4.19.65.29,1.33.58,2,.88.75.34,1.51.67,2.25,1,.54.24,1.07.48,1.6.71.31.14.61.27.91.41.27.12.53.24.79.36l-.18-1.18c-.07-.03-.13-.06-.2-.09-.3-.14-.61-.27-.91-.41-.53-.24-1.06-.47-1.61-.71-.75-.33-1.5-.66-2.25-1-.68-.3-1.35-.6-2.01-.88-3.38-1.48-8-3.51-7.83-4.43.11-.07.33-.12.73-.1.68.03,1.92.28,4.11,1.01.04.01.08.03.12.04.26.09.54.18.83.29.08.03.15.05.23.08.35.13.72.26,1.11.41.34.13.66.25.97.38.08.03.16.07.24.1.22.09.44.18.65.27.09.04.17.07.25.11.19.08.38.17.55.25.09.04.17.08.26.12.16.08.32.15.47.23.09.04.17.09.25.13.13.07.27.14.39.21.08.04.16.09.24.13.11.06.23.13.34.19.08.04.14.09.21.13.1.06.2.12.29.18.07.04.13.09.19.13.08.06.17.11.25.17.06.04.11.08.17.12.07.05.14.1.21.15.05.04.1.08.15.12.06.05.12.09.17.14.04.04.08.07.12.11.05.04.09.09.13.13.04.04.07.07.1.1.04.04.07.08.1.12.03.03.05.06.08.09.03.03.05.07.08.1.02.03.04.06.05.08.02.03.03.06.05.09.01.03.02.05.03.07.01.03.02.05.02.07,0,.02,0,.04.01.06,0,.01,0,.03,0,.04,0,.01,0,.03,0,.04-.03.23.1.45.32.54l.22.08-.34-2.16c-.07-.07-.13-.14-.21-.21-.04-.03-.08-.07-.12-.1Z"/>
  <path class="cls-2" d="M117.96,29.65c-.05,0-.1,0-.15-.02l-1.58-.51,1.06.34-3.27,8.02-8.28-2.66,3.27-8.02h0l-3.48,8.52c-.08.19-.26.31-.46.31-.02,0-.04,0-.06,0-.11-.01-.2-.06-.28-.13.05.05.12.09.19.11l9.23,2.96s.1.02.15.02c.2,0,.38-.12.46-.31l3.65-8.95s0,0,0,0c-.03.08-.08.15-.14.2-.09.08-.21.12-.33.12Z"/>
  <rect class="cls-2" x="113.26" y="22.83" width="0" height="8.58" transform="translate(52.84 126.68) rotate(-72.21)"/>
  <path class="cls-2" d="M104.63,35.35s.06.09.09.13c-.06-.06-.1-.14-.12-.23,0,.03,0,.07.02.1Z"/>
  <polygon class="cls-2" points="105.7 17.44 105.7 17.44 104.83 19.55 105.7 17.44"/>
  <path class="cls-2" d="M107.07,14.93s.01,0,.02,0c.03,0,.05,0,.08,0-.02,0-.03-.02-.04-.02-.02,0-.03.01-.05.01Z"/>
  <polygon class="cls-2" points="107.55 15.34 109.18 25.81 109.18 25.81 109.18 25.81 107.55 15.34"/>
  <path class="cls-2" d="M105.08,35.64c.2,0,.39-.12.46-.31l3.48-8.52-.44-.14c-.18-.06-.31-.21-.34-.4l-1.4-8.99h0s1.38,8.85,1.38,8.85l-2.92,7.15-1.38-8.85,1.89-4.64-1.95,4.77c-.03.06-.07.12-.12.17l-.69.67,1.53,9.82s.01.02.02.03c.02.09.06.16.12.23,0,0,.01.02.02.03.08.07.17.12.28.13.02,0,.04,0,.06,0Z"/>
  <polygon class="cls-2" points="99 22.54 106.71 15.06 99 22.54 99 22.54"/>
  <path class="cls-2" d="M106.99,14.93s.06,0,.09,0c0,0-.01,0-.02,0-.03,0-.05,0-.08,0Z"/>
  <path class="cls-2" d="M103.87,24.55l1.95-4.77,1.02-2.51h0s-.13-.83-.13-.83l-7.16,6.94-2.25,5.51,2.25-5.51,6.14-5.96h0s-.86,2.11-.86,2.11l-1.85,4.53-6.14,5.96-.9,2.21c-.03.09-.1.15-.17.2.02-.01.04-.02.05-.03l7.23-7.02.69-.67s.09-.11.12-.17Z"/>
  <path class="cls-2" d="M107.39,15.05s-.03-.03-.05-.04c-.02-.01-.04,0-.05-.01.05.03.1.05.13.09,0,0,0,0,0,0,0-.01-.02-.02-.03-.03Z"/>
  <path class="cls-2" d="M79.78,6.25c.07-.02.13-.02.2-.02-.04,0-.08-.02-.12-.01-.03,0-.05.02-.08.03Z"/>
  <path class="cls-2" d="M87.09,29.32l3.54-8.68-7.39-9.09,7.39,9.09-3.22,7.89-6.51-8-.43,1.06,6.7,8.23s.02.01.03.02c-.04-.04-.07-.08-.1-.13-.06-.13-.06-.27,0-.4Z"/>
  <polygon class="cls-2" points="91.49 20.13 91.5 20.13 99 22.54 99 22.54 99 22.54 91.49 20.13"/>
  <path class="cls-2" d="M96.84,30.04l.46-1.14,2.25-5.51-.08.07c-.13.13-.33.17-.5.12l-1.45-.47.94.3-3.27,8.02-6.98-2.24,3.27-8.02-.44-.14c-.09-.03-.17-.09-.24-.16l-.19-.23-3.54,8.68c-.05.13-.05.27,0,.4.02.05.06.09.1.13.03.03.06.05.1.07.03.02.05.03.08.04.01,0,.02.01.03.02l7.93,2.54s.1.02.15.02c.09,0,.17-.03.24-.07.02-.01.03-.02.05-.03.07-.05.13-.12.17-.2l.9-2.21Z"/>
  <path class="cls-2" d="M66.07,9.26c-.03.08-.04.18-.03.27l.2,1.26.34,2.16.07.42.06.39.18,1.18,1.34,8.6s.01.02.02.03c-.02-.1-.03-.2.01-.3l.68-1.67-.96-6.16-.19-1.19-.14-.91-.18-1.13h0s-.42-2.7-.42-2.7l.56-1.37.38-.93,1.98-4.86,1.02,6.54.21,1.32.56,3.6h0s.1.63.1.63l-.17.41-.44,1.09-.38.93-.38.92,1.37-3.35-2.16-13.88c-.03-.16.04-.33.16-.44-.05.05-.1.1-.13.17l-2.63,6.46-.38.93-.64,1.57Z"/>
  <path class="cls-2" d="M70.24,0c-.05,0-.11,0-.16,0,.06-.01.13,0,.19.01-.01,0-.02-.02-.04-.02Z"/>
  <polygon class="cls-2" points="72.11 9.64 70.8 1.22 70.8 1.22 72.81 14.13 72.81 14.13 72.33 11.04 72.11 9.64"/>
  <path class="cls-2" d="M82.06,17.67s0,0,0,0c-.03.08-.08.15-.14.2-.13.11-.31.15-.48.1l-9.24-2.96c-.18-.06-.31-.21-.34-.4l-.02-.14-1.37,3.35-1.55,3.8-.68,1.67c-.04.1-.04.2-.01.3,0,.03,0,.07.02.1.02.05.06.09.09.13,0,0,.01.02.02.03.05.05.12.09.19.11l2.93.94,2.98.96.85.27.96.31,1.52.49s.1.02.15.02c.2,0,.38-.12.46-.31l2.05-5.02.43-1.06,1.17-2.87ZM80.17,19.65l-.43,1.06-2.08,5.1-.97-.31-.58-.19-1.57-.5-5.16-1.66,2.36-5.79.38-.94.5-1.22.03-.08,3.45,1.11.17.05.05.02,1.52.49,3.08.99-.76,1.86Z"/>
  <path class="cls-2" d="M116.28,15.06c-.03-.19-.16-.34-.34-.4l-14.29-4.58c-.18-.06-.38,0-.51.13l-6.6,6.75-9.67-12.17c-.06-.08-.14-.13-.24-.17L70.34.02s-.04,0-.06,0c-.06-.01-.13-.02-.19-.01,0,0,0,0,0,0-.08.02-.15.05-.21.1,0,0-.01,0-.02,0,0,0,0,.01-.01.02-.12.11-.18.28-.16.44l2.16,13.88.02.14c.03.19.16.34.34.4l9.24,2.96c.17.05.35.02.48-.1.06-.05.11-.12.14-.2,0-.01,0-.03,0-.05.02-.06.02-.12.02-.18,0,0,0-.02,0-.03l-1.39-8.95,2.53,3.11,7.39,9.09.19.23c.06.08.14.13.24.16l.44.14,6.04,1.94,1.45.47c.17.05.37.01.5-.12l.08-.07,7.16-6.94.13.83,1.4,8.99c.03.19.16.34.34.4l.44.14h0l7.21,2.31,1.58.51s.1.02.15.02c.12,0,.23-.04.33-.12.06-.05.11-.12.14-.2,0-.02,0-.03,0-.05.02-.06.02-.12.02-.18,0,0,0-.02,0-.03l-2.18-14.01ZM117.35,28.43l-8.17-2.62h0s-1.63-10.47-1.63-10.47c0,0,0-.01,0-.02-.02-.08-.05-.15-.1-.21,0-.01-.02-.02-.03-.03-.04-.04-.09-.07-.13-.09-.02-.01-.04-.04-.07-.05-.02,0-.04,0-.06,0-.03,0-.05,0-.08,0-.03,0-.06,0-.09,0-.04,0-.08.03-.12.04-.03.01-.06.03-.09.05-.02.01-.05.02-.06.03l-7.71,7.48h0s-7.5-2.41-7.5-2.41h0s-11.18-13.74-11.18-13.74c-.06-.08-.15-.13-.24-.15-.03,0-.06,0-.09-.01-.07,0-.13,0-.2.02-.02,0-.04,0-.05,0-.03.01-.05.03-.08.05-.01,0-.03.01-.04.02-.06.05-.1.11-.13.18-.04.09-.06.18-.04.28l.28,1.78,1.27,8.19-4.08-1.31-.44-.14-.51-.16-.53-.17-2.61-.84h0s-2.01-12.91-2.01-12.91h0s13.38,4.29,13.38,4.29l9.93,12.5c.09.11.22.18.37.19.13,0,.28-.05.38-.15l6.78-6.93,13.7,4.4,2.01,12.91h0Z"/>
</svg>