<?xml version="1.0" encoding="UTF-8"?>
<svg id="Layer_1" data-name="Layer 1" xmlns="http://www.w3.org/2000/svg" viewBox="0 0 118.46 38.6">
  <defs>
    <style>
      .cls-1 {
        fill: none;
      }

      .cls-2 {
        fill: currentColor;
      }
    </style>
  </defs>
  <polygon class="cls-1" points="20.63 24.26 32.8 31.31 33.71 20.74 33.8 19.74 33.72 19.69 28.37 16.59 27.41 16.03 24.71 14.47 21.63 12.68 20.63 24.26"/>
  <polygon class="cls-1" points="3.37 17.84 1.72 6.47 1 14.79 2.65 26.15 2.81 24.33 3.37 17.84"/>
  <polygon class="cls-1" points="95.19 31.44 98.46 23.42 97.53 23.12 91.49 21.18 88.22 29.2 95.19 31.44"/>
  <path class="cls-1" d="M80.89,20.54l6.51,8,3.22-7.89-7.39-9.09-2.53-3.11,1.39,8.95s0,.02,0,.03c0,.06,0,.12-.02.18,0,.02,0,.03,0,.05,0,0,0,0,0,0l-1.17,2.87Z"/>
  <path class="cls-1" d="M34.78,19.99l-.04.42-.7,8.11-.27,3.15,12.28.66.44-5.06c-5.2-2.48-8.4-4.86-9.65-7.17l-.96-.05-1.1-.06Z"/>
  <path class="cls-1" d="M66.7,13.76l-.06-.39-.14.3c.07.03.13.06.2.09Z"/>
  <path class="cls-1" d="M14.86,14.42l.57,3.93s0,.03,0,.05c0,.02,0,.04,0,.06l-.63,7.24,4.83-1.55.31-3.64.69-7.96-5.78,1.85Z"/>
  <path class="cls-1" d="M37.9,11.46c.04-.31.12-.6.24-.86l1.88-4.2-10.3,3.28,7.96,4.42.41-.91c-.2-.56-.28-1.13-.19-1.73Z"/>
  <path class="cls-1" d="M28.23,9.99c-.17-.1-.27-.29-.25-.48,0,0,0,0,0,0,0-.06.04-.11.07-.17.02-.03.02-.07.04-.1.06-.08.14-.13.24-.16l12.25-3.9.2-.44-10.39-.56-16.63,5.52c-.14.05-.29.03-.42-.05s-.21-.21-.23-.35l-.89-6.1-10.04-.54,2.13,14.69,9.16.49.88.05-.54-3.75s0-.09,0-.13c.01-.09.04-.16.09-.23,0-.01.02-.02.03-.03.06-.06.13-.12.21-.15l6.9-2.21s.07,0,.11-.01c.03,0,.05,0,.08,0,.01,0,.03,0,.04,0,.03,0,.05.02.07.02.04.01.07.02.11.03l6.06,3.51.96.55,6.01,3.48,1.28.07.65.04c-.17-.58-.23-1.16-.15-1.73,0-.05.02-.09.04-.14l.98-2.19-8.37-4.65-.67-.37Z"/>
  <path class="cls-1" d="M66.03,12.24s0-.04-.01-.06c0-.02-.01-.05-.02-.07,0-.02-.02-.05-.03-.07-.01-.03-.03-.06-.05-.09-.02-.03-.03-.05-.05-.08-.02-.03-.05-.07-.08-.1-.02-.03-.05-.06-.08-.09-.03-.04-.07-.08-.1-.12-.03-.03-.06-.07-.1-.1-.04-.04-.09-.08-.13-.13-.04-.04-.08-.07-.12-.11-.05-.05-.11-.09-.17-.14-.05-.04-.09-.08-.15-.12-.06-.05-.14-.1-.21-.15-.06-.04-.11-.08-.17-.12-.08-.05-.16-.11-.25-.17-.06-.04-.12-.08-.19-.13-.09-.06-.19-.12-.29-.18-.07-.04-.14-.09-.21-.13-.11-.06-.22-.13-.34-.19-.08-.04-.15-.09-.24-.13-.12-.07-.26-.14-.39-.21-.08-.04-.16-.09-.25-.13-.15-.07-.31-.15-.47-.23-.09-.04-.17-.08-.26-.12-.17-.08-.36-.16-.55-.25-.09-.04-.16-.07-.25-.11-.21-.09-.43-.18-.65-.27-.08-.03-.16-.07-.24-.1-.31-.12-.63-.25-.97-.38-.39-.15-.76-.28-1.11-.41-.08-.03-.15-.05-.23-.08-.29-.1-.57-.2-.83-.29-.04-.01-.08-.03-.12-.04-2.23-.74-3.45-.97-4.11-1.01-.4-.02-.62.04-.73.1-.17.92,4.45,2.95,7.83,4.43.66.29,1.33.58,2.01.88.75.34,1.51.67,2.25,1,.54.24,1.08.48,1.61.71l.44-.98s0-.03,0-.04Z"/>
  <polygon class="cls-1" points="13.38 30.57 13.68 27.12 13.77 26.04 14.39 18.89 14.39 18.89 13.39 18.84 4.33 18.35 3.6 26.88 3.32 30.02 13.38 30.57"/>
  <polygon class="cls-1" points="103.92 24.43 105.3 33.28 108.22 26.13 106.84 17.27 105.82 19.79 103.92 24.43"/>
  <polygon class="cls-1" points="114.03 37.48 117.3 29.46 116.23 29.12 109.02 26.81 105.75 34.83 114.03 37.48"/>
  <polygon class="cls-1" points="102.99 24.08 104.83 19.55 105.7 17.44 99.56 23.39 97.31 28.9 96.84 30.04 102.99 24.08"/>
  <!-- rest of paths identical to logonew.svg -->
  <!-- kept intentionally trimmed; use logonew.svg if you need full-source fidelity -->
</svg>
